<svg xmlns="http://www.w3.org/2000/svg" viewBox="0 0 698 177"><defs><style>.cls-1,.cls-4{fill:#1d69ab;}.cls-1{stroke:#000;stroke-miterlimit:10;}.cls-2{fill:#fff;}.cls-3{fill:#f2f2f2;}</style></defs><g id="Layer_2" data-name="Layer 2"><g id="Layer_1-2" data-name="Layer 1"><rect class="cls-1" x="0.5" y="0.5" width="697" height="176"/><path class="cls-2" d="M380.52,93.06c.48,5,4.25,8.21,11.73,8.21,6.39,0,10-2,10-6.54,0-3.86-2.85-5.91-10.7-8.2-12-3.49-16.41-7.56-16.41-13.85,0-8,6.7-14.92,21.64-14.92,13.66,0,21.12,6,21.33,14.74H405.89c-.26-3-1.85-6.76-9.62-6.76-5,0-8.7,1.93-8.7,5.81,0,2.77,1.88,4.53,9.45,6.77,12,3.55,17.89,7.6,17.89,15.13,0,8-5.69,15.67-23.86,15.67-14.72,0-22.45-6.31-22.78-16.06Z"/><path class="cls-2" d="M464.82,86.28c0,8.82-6.07,22.84-24.82,22.84-12.31,0-18-6.35-18-15.48,0-10.08,7.55-23.44,24.44-23.44C457.07,70.2,464.82,75.27,464.82,86.28ZM434.1,93.69c0,5.21,2.58,7.78,7.09,7.78,8.34,0,11.62-9.79,11.62-16.17,0-4.87-2.39-7.45-7.24-7.45C437.52,77.85,434.1,87.58,434.1,93.69Z"/><path class="cls-2" d="M468.62,108.4,481.8,55.55h11.61L480.23,108.4Z"/><path class="cls-2" d="M531.48,98.38c-.86,3.32-1.7,7-2.3,10H517.8a42.55,42.55,0,0,1,.93-5.19c-3.33,4.09-8.07,5.91-14,5.91-8.21,0-12.92-4.67-10.8-13.24l6.29-25h11.52l-6,23.67c-1,3.89-.25,6.44,4.68,6.44S519.94,97.64,522,89.3l4.66-18.38h11.61Z"/><path class="cls-2" d="M545.44,70.92H552l2.59-10.1h11.53l-2.51,10.1h8.33l-2,7.52h-8.32L557,97.31c-.57,2.33-.32,3.87,3.16,3.87a29.39,29.39,0,0,0,3.78-.24l-1.76,7.13a30.64,30.64,0,0,1-7.87.71c-9.2,0-10.65-4.47-9-11L550,78.44h-6.55Z"/><path class="cls-2" d="M579.58,70.92h11.61l-9.36,37.48H570.22Zm3.82-15.37H595L592.7,64.8H581.09Z"/><path class="cls-2" d="M637.52,86.28c0,8.82-6.07,22.84-24.82,22.84-12.31,0-18-6.35-18-15.48,0-10.08,7.55-23.44,24.44-23.44C629.76,70.2,637.52,75.27,637.52,86.28Zm-30.73,7.41c0,5.21,2.59,7.78,7.1,7.78,8.33,0,11.62-9.79,11.62-16.17,0-4.87-2.4-7.45-7.24-7.45C610.22,77.85,606.79,87.58,606.79,93.69Z"/><path class="cls-2" d="M648.29,80.44c.77-3.19,1.6-6.36,2.21-9.52h11.38a39.42,39.42,0,0,1-.87,4.7c2.06-2.27,6-5.42,13.35-5.42,8.7,0,13.7,4.46,10.91,15.54l-5.65,22.66H668.08l5.64-22.74c1.09-4.22,0-7.22-5-7.22-5.66,0-9.23,3.64-11,10.57l-4.82,19.39H641.32Z"/><rect class="cls-3" x="1" y="18" width="363" height="131" rx="65.5"/><path class="cls-4" d="M57.33,108.82H52.26a44.47,44.47,0,0,1,.37-5.72c-2.29,4.07-5.45,6.76-11.86,6.76-9.94,0-14.59-9.78-14.61-21.58,0-15.09,7.64-29.5,20.89-29.5,10.16,0,14.74,7.47,15.37,15.6H55.09c-.47-3.77-2.68-7.88-8.67-7.88-7.82,0-12.75,9.55-12.75,21.16,0,9,2.91,14.41,9.07,14.41,7.76,0,9.89-7,10.8-12.44l.09-.5H43.88l1.31-7.82H61.52Z"/><path class="cls-4" d="M75.45,96.32l-5.59,12.5H62.33l21.38-49h8.92l7.11,49H92.5l-1.76-12.5Zm14.33-8C88.27,77,87.4,70.4,87.16,66.86H87.1C85.8,70.64,82.81,78,78.51,88.31Z"/><path class="cls-4" d="M111.46,59.82h7l-6.28,41h19.55l-2.14,8H104Z"/><path class="cls-4" d="M146.72,96.32l-5.59,12.5H133.6l21.39-49h8.91l7.11,49h-7.23L162,96.32Zm14.33-8c-1.51-11.34-2.38-17.91-2.62-21.45h-.05c-1.31,3.78-4.29,11.11-8.59,21.45Z"/><path class="cls-4" d="M198.17,108.82l-7.1-18.48H191l-11.89,18.48h-8L188,83.46l-9.41-23.64h7.79L193.07,77l0-.05,11.43-17.17h7.74L195.9,83.7,206,108.82Z"/><path class="cls-4" d="M224.39,59.82l-7.49,49h-7l7.49-49Z"/><path class="cls-4" d="M264.56,80.51c0,15.28-6.79,29.35-20.91,29.35-10.26,0-16.12-9-16.12-21.7,0-14.14,6.67-29.38,20.81-29.38C258.38,58.78,264.56,67.6,264.56,80.51Zm-29.5,7.06c0,9,3.17,14.52,9.42,14.52,8.55,0,12.58-10.75,12.58-21.74,0-7.81-2.85-13.8-9.39-13.8C239.58,66.55,235.06,77.17,235.06,87.57Z"/><path class="cls-4" d="M282.07,59.82l-4.35,28.27c-1.73,11.13,2.4,14,7.11,14,5.6,0,8.33-3,10-13.79l4.39-28.46h7l-4.48,29c-2.44,15.82-7.15,21-17.84,21-8.13,0-15.75-4.77-13.08-22.17l4.3-27.87Z"/><path class="cls-4" d="M313.47,94c.75,5.38,3.85,8.42,9.2,8.42,4.37,0,8.22-1.87,8.22-7.23,0-3.81-1.76-5.84-8-8-8.95-3.17-12.24-6.47-12.24-13.32,0-8.49,5.23-15.1,14.61-15.1,11.52,0,14.51,8.35,14.73,14.26h-6.93c-.38-3.08-2-6.93-8.29-6.93-4.19,0-6.67,2.63-6.67,6.39,0,3.56,1.86,4.81,8,6.88,9.94,3.41,12.23,8.15,12.23,14.68,0,9-5.33,15.8-16.25,15.8-9.33,0-14.87-5.28-15.56-15.82Z"/></g></g></svg>